<?xml version="1.0" encoding="UTF-8"?>
<svg id="Calque_2" data-name="Calque 2" xmlns="http://www.w3.org/2000/svg" viewBox="0 0 1642.23 300">
  <defs>
    <style>
      .cls-1 {
        fill: #231f20;
      }

      .cls-2 {
        fill: #ed037c;
      }
    </style>
  </defs>
  <g id="Calque_1-2" data-name="Calque 1">
    <g id="svg_268" data-name="svg 268">
      <g>
        <g id="svg_269" data-name="svg 269">
          <path id="svg_270" data-name="svg 270" class="cls-2" d="M1585.73,120.61c24.58,14.12,45.5,5.75,53.35-12.55,7.84-16.74.52-36.61-16.21-44.45,16.21-7.84,23.53-27.72,16.21-44.45-8.37-17.78-28.77-26.15-53.35-12.03-17.26,9.94-30.86,25.63-54.39,56.48,23.53,31.38,36.61,47.07,54.39,57.01Z"/>
        </g>
        <g id="svg_271" data-name="svg 271">
          <path id="svg_272" data-name="svg 272" class="cls-1" d="M73.74,250.32H0V56.81h69.04c38.18,0,57.53,19.87,57.53,52.3,0,16.21-6.8,29.29-18.83,38.18,16.21,8.89,26.15,24.06,26.15,46.02,0,35.04-23.01,57.01-60.15,57.01h0ZM37.13,90.28v42.89h31.9c12.55,0,21.97-8.89,21.97-21.44s-8.37-21.44-21.97-21.44h-31.9ZM67.99,166.64h-31.38v49.68h31.9c14.12,0,27.72-5.76,27.72-24.58.52-15.69-9.42-25.1-28.24-25.1Z"/>
          <path id="svg_273" data-name="svg 273" class="cls-1" d="M146.96,64.13h36.61v126.04c0,20.4,9.42,27.72,29.29,26.67v33.99c-43.41,4.71-65.9-20.92-65.9-60.67v-126.04h0Z"/>
          <path id="svg_274" data-name="svg 274" class="cls-1" d="M360.35,250.32h-34.52v-15.17c-10.98,12.03-26.15,18.3-43.41,18.3-37.66,0-68.52-33.47-68.52-75.31s30.34-76.36,73.22-76.36,73.22,34.52,73.22,76.36v72.18h0ZM287.65,136.83c-20.4,0-36.61,17.78-36.61,41.84s16.21,40.79,36.61,40.79,36.61-18.3,36.61-40.79c-.52-23.01-16.74-41.84-36.61-41.84Z"/>
          <path id="svg_275" data-name="svg 275" class="cls-1" d="M444.02,102.31c39.75,0,63.28,26.67,63.28,64.85v83.68h-36.61v-84.72c0-8.37-2.62-27.72-26.67-27.72-16.21,0-27.72,10.98-27.72,27.72v84.72h-36.61v-83.68c0-37.13,25.63-64.85,64.33-64.85Z"/>
          <path id="svg_276" data-name="svg 276" class="cls-1" d="M593.08,253.98c-42.89,0-73.74-33.47-73.74-75.84s30.86-76.36,73.74-76.36c34.52,0,60.15,19.87,68.51,52.3h-39.22c-5.23-9.94-16.21-18.3-29.81-18.3-20.4,0-36.61,19.35-36.61,42.36s16.21,41.84,36.61,41.84c13.6,0,25.1-8.37,29.81-18.3h39.22c-7.84,32.95-33.99,52.3-68.51,52.3h0Z"/>
          <path id="svg_277" data-name="svg 277" class="cls-1" d="M801.23,250.32h-36.61v-84.72c0-8.37-2.61-27.72-26.67-27.72-16.21,0-27.72,11.51-27.72,27.72v84.72h-36.61V64.13h36.61v48.64c8.89-6.8,20.4-10.98,32.42-10.98,35.04,0,58.05,25.63,58.05,63.81l.52,84.72h0Z"/>
          <path id="svg_278" data-name="svg 278" class="cls-1" d="M1046,253.45c-16.74,0-30.86-5.75-41.32-16.74v63.28h-36.61v-122.38c0-41.84,30.34-75.83,73.22-75.83s73.22,33.99,73.22,75.83c-.52,41.84-30.85,75.84-68.51,75.84ZM1040.76,136.83c-20.4,0-36.61,18.3-36.61,40.79s16.21,41.84,36.61,41.84,36.61-17.78,36.61-41.84c0-23.01-16.21-40.79-36.61-40.79Z"/>
          <path id="svg_279" data-name="svg 279" class="cls-1" d="M1263.56,178.14c0,43.41-32.42,75.84-72.17,75.84s-71.65-32.43-71.65-75.84,31.9-76.36,71.65-76.36c40.27.52,72.17,33.47,72.17,76.36ZM1226.95,178.67c0-25.1-15.69-42.36-35.04-42.36s-35.04,17.26-35.04,42.36,15.69,41.32,35.04,41.32,35.04-16.74,35.04-41.32Z"/>
          <path id="svg_280" data-name="svg 280" class="cls-1" d="M1348.81,137.87c-23.01-4.18-38.7,8.37-38.7,28.77v83.68h-36.61v-83.68c0-40.8,27.72-69.56,75.31-63.81v35.04h0Z"/>
          <path id="svg_281" data-name="svg 281" class="cls-1" d="M1423.6,250.84c-41.84,4.71-63.81-20.92-63.81-60.67v-125.52h36.61v37.13h25.63v37.13h-25.63v51.78c0,20.4,8.9,27.72,27.2,26.67v33.47h0Z"/>
          <path id="svg_282" data-name="svg 282" class="cls-1" d="M913.68,206.91c-6.28,9.41-17.26,14.12-28.77,14.12-17.26,0-30.86-10.98-35.57-28.77h107.74c5.23-57.53-29.81-90.48-71.65-90.48s-73.22,34.52-73.22,76.36,32.95,75.84,73.22,75.84c34.52,0,59.1-18.83,67.99-47.07h-39.75ZM885.43,134.73c17.26,0,31.38,10.46,35.56,27.72h-71.13c5.75-16.74,18.83-27.72,35.56-27.72Z"/>
          <path id="svg_283" data-name="svg 283" class="cls-1" d="M1531.34,206.91c-6.28,9.41-17.26,14.12-28.77,14.12-17.26,0-30.86-10.98-35.56-28.77h107.73c5.23-57.53-29.81-90.48-71.65-90.48s-73.22,34.52-73.22,76.36,32.95,75.84,73.22,75.84c34.52,0,59.1-18.83,67.99-47.07h-39.75ZM1502.57,134.73c17.26,0,31.38,10.46,35.56,27.72h-71.13c5.76-16.74,19.35-27.72,35.57-27.72Z"/>
        </g>
      </g>
    </g>
  </g>
</svg>