<?xml version="1.0" encoding="UTF-8"?>
<svg id="Calque_2" data-name="Calque 2" xmlns="http://www.w3.org/2000/svg" viewBox="0 0 2101.79 300">
  <defs>
    <style>
      .cls-1 {
        fill: #dc0028;
      }

      .cls-1, .cls-2 {
        fill-rule: evenodd;
      }

      .cls-2 {
        fill: #290075;
      }
    </style>
  </defs>
  <g id="Calque_1-2" data-name="Calque 1">
    <g>
      <path class="cls-2" d="M573.3,169.46l-7.86-7.86-7.86-5.45-9.91-4.45-8.53-1.72-.34-.31-9.91-.69-10.6,1-10.24,2.76-8.88,4.1-9.56,6.83-7.86,7.52-5.82,8.21-5.13,9.24-4.44,12.28-1.72,10.59-1.01,11.62.68,11.65,2.07,12.28,4.08,11.62,5.82,10.27,6.83,8.87,6.84,6.86,7.86,5.8,8.53,4.1,9.58,2.73,10.59,1.03,10.59-.34,1.72-.34,8.53-2.04,8.87-3.44,7.86-5.11,7.86-7.86,1.72,14.35h39.96V98.76h-40.3v70.7h-.01ZM572.26,229.61l-2.38,10.59-2.75,7.52-3.76,6.48-4.77,4.79-5.82,3.76-6.83,2.41-5.14.66-2.04-.34h-4.79l-3.41-1-6.49-2.76-6.15-3.76-4.77-5.11-3.44-5.83-3.07-7.86-1.37-8.87-.34-9.24,1.03-10.24,2.06-8.88,2.73-6.83,4.1-5.48,4.45-4.76,6.14-3.76,7.18-2.07,6.15-.34,2.04-.34,7.86,1.72,6.84,3.07,6.15,4.45,4.45,6.14,3.07,6.83,1.7,6.86,1.37,10.93v11.26h-.01ZM446.55,203.65l-4.1-10.96-4.1-8.18-4.45-6.86-5.46-6.83-5.82-5.14-6.83-4.76-8.55-4.79-9.55-3.41-9.58-2.41-10.59-1h-10.57l-10.27,1.35-10.24,2.76-9.91,3.76-9.56,6.48-7.52,5.8-6.48,7.2-4.79,8.21-4.1,8.52-2.73,8.88-2.41,12.64-.32,10.59.68,10.24,2.07,9.93,3.76,9.9,4.77,8.88,6.49,9.21,7.52,7.17,8.19,5.82,9.22,4.79,9.58,3.76,10.24,2.73,10.59,1.38h10.6l10.6-1.38,10.24-2.38,9.91-3.76,9.22-5.14,9.58-7.86,6.48-7.17,4.79-7.86,2.38-5.14,2.06-4.76-41-3.44-3.07,5.48-4.79,4.79-5.11,3.76-6.17,2.73-6.83,1.38-6.48.34h-.34l-7.18-1.03-6.49-2.41-5.8-3.76-5.48-4.42-4.77-6.86-2.75-6.48-1.37-6.48-.32-3.41h110.35v-8.88l-1.03-10.93-2.44-10.62ZM374.12,207.07h-32.81l1.38-6.51,2.73-5.8,3.41-5.48,5.14-4.42,5.82-3.44,6.49-2.04,7.86-1.03h.68l6.84.69,6.14,2.07,5.82,3.41,4.77,4.1,4.08,5.45,3.08,5.82,1.01,5.11.34,2.07h-32.78ZM388.11,137.71l41-38.26h-42.38l-12.62,21.16-10.25,17.09h24.25ZM634.45,293.49h39.96v-140.07h-39.96v140.07ZM278.12,151.7l-7.18,1.72-6.83,3.42-6.15,4.42-4.79,5.13-3.42,5.48-1.37,3.42-1.35-20.52h-38.96v138.72l39.64.34v-65.6l.68-7.52,1.72-7.86,3.07-7.5,4.79-7.18,6.15-6.48,6.83-4.1,6.83-2.41,7.52-1.01,6.83.35h1.7v-32.82l-8.18-.69-7.52.69ZM147.61,234.75l-2.73,6.81-3.76,6.14-4.79,5.48-6.83,5.11-7.52,3.76-7.86,2.75-7.86,1.01h-8.21l-8.53-1.69-9.24-3.07-7.86-3.76-6.83-5.14-6.83-6.83-5.8-7.86-3.77-7.86-2.73-8.21-1.7-9.91-1.37-10.94-.34-11.26,1.03-11.28,3.42-11.95,4.77-10.59,5.46-8.88,7.17-8.18,8.21-6.51,8.21-3.76,8.19-2.04,8.88-1.38,9.9.69,8.9,2.04,7.84,3.41,6.84,4.11,6.14,5.48,4.45,6.48,3.07,6.51,1.72,6.14,39.96-1.72-1.35-8.17-3.08-9.24-4.11-8.55-5.46-8.21-6.48-7.17-7.86-6.49-8.21-5.82-9.56-4.1-9.91-3.42-11.28-2.72-11.26-1.38-11.97-.35-11.62,1.38-11.95,2.38-12.31,3.76-10.93,5.14-10.24,6.14-9.24,7.2-8.53,8.86-7.2,9.24-5.45,9.59-4.44,10.24-2.73,10.59-1.72,10.93-.35,11.62.35,13,1.03,12.64,3.07,12.62,3.76,12.31,6.15,12.66,7.17,10.57,8.21,8.9,9.22,7.86,10.57,7.17,10.27,5.48,10.94,3.73,11.26,2.76,11.62,1.03h11.28l11.95-1.38,11.62-2.72,11.28-3.42,10.24-5.13,9.91-6.17,9.22-7.18,7.86-8.55,6.49-9.9,3.76-9.19,2.41-9.59,1.35-8.19h-42.03l-1.35,6.17ZM751.97,110.38h-39.64v44.39h-21.53v25.3h21.21v75.15l.32,7.52,1.37,7.17,2.75,6.51,3.74,6.14,5.13,5.48,6.15,3.42,5.46,2.04,5.83.34h36.19v-28.37h-14.69l-4.1-1-3.41-2.07-2.73-2.72-1.72-3.76-.34-3.41v-72.43h27.33v-25.64h-27.33v-44.06ZM634.45,132.57h40.31v-33.81h-40.31v33.81ZM1841.12,231.99v4.45l-1.01,5.48-2.06,5.45-3.42,5.48-4.45,4.45-5.45,3.76-6.51,2.38-6.48.69-6.49-.69-6.17-2.04-5.1-3.76-3.45-4.45-1.69-4.1-.69-4.1-.34-4.11v-86.79h-40.65v102.86l.69,6.83,2.04,6.83,3.41,6.48,4.79,5.48,6.49,5.48,6.81,4.45,7.55,3.07,8.18,2.04,11.26,1.03,8.9-.69,8.88-2.03,8.21-3.1,8.86-5.8,5.14-5.48,2.38-3.41,2.41,15.71h37.92v-139.4h-39.97v77.56ZM2061.83,293.49h39.96V99.1h-39.96v194.39ZM1706.16,110.38h-39.27v44.39h-21.88v25.3h21.54v82.67l1.38,7.17,2.72,6.51,3.76,6.14,5.45,5.48,6.17,3.42,5.45,2.04,5.48.34h36.2v-28.37h-14.35l-4.1-1-3.76-2.07-2.72-2.72-1.72-3.76-.35-3.41v-72.43h27.33v-25.64h-27.33v-44.06ZM2043.05,207.73l-2.76-9.9-4.76-10.24-5.82-8.88-6.83-8.55-7.52-7.17-7.52-5.14-8.55-4.1-9.21-2.73-9.57-1.69-10.93-.34h-.34l-11.62,1-10.59,1.72-10.24,3.41-8.88,4.79-7.52,5.45-6.86,6.51-5.8,7.52-5.14,8.21-4.1,10.24-3.07,9.9-1.69,10.27v10.24l1.35,10.27,2.76,9.55,4.07,9.58,5.14,9.55,6.83,8.55,7.52,7.52,8.88,5.8,8.88,4.79,9.21,3.41,10.27,2.07,9.9.69h1.03l9.21-.34,10.27-1.72,10.59-3.07,9.9-4.1,9.24-5.14,8.21-6.48,7.17-8.21,4.79-7.52,3.07-7.52.69-2.04-40.33-3.1-3.41,5.82-4.76,4.79-5.82,3.76-6.48,2.38-6.86,1.38h-6.83l-6.83-1.03-7.86-3.41-5.8-3.41-5.14-4.79-3.76-5.82-2.73-6.48-1.03-6.48v-3.1h110.35v-7.17l-.34-9.21-2.06-10.28ZM1969.59,207.41h-33.13l1.35-6.86,2.41-5.45,3.41-5.48,4.76-4.45,5.82-3.41,6.14-2.04,7.52-1.38,1.72.34h5.11l6.17,1.72,6.14,2.38,5.14,3.76,3.41,3.76,2.73,4.1,2.07,4.79,1.72,5.45.31,2.76h-32.78ZM1592.4,231.99l-.34,4.45-.66,5.48-2.41,5.45-3.07,5.48-4.45,4.45-5.83,3.76-6.48,2.38-6.48.69-6.17-.69-6.49-2.04-4.79-3.76-3.41-4.45-1.7-4.1-.68-4.1-.35-4.11v-86.79h-40.64v102.86l.65,6.83,2.07,6.83,3.42,6.48,4.79,5.48,6.48,5.48,6.83,4.45,7.52,3.07,8.19,2.04,11.28,1.03,8.55-.69,8.88-2.03,8.52-3.1,8.9-5.8,5.14-5.48,2.38-3.41,2.41,15.71h37.57v-139.4h-39.64v77.56ZM1375.13,240.54l-42.37-141.44h-62.18v194.39h39.64v-139.41l44.41,139.41h42.02l44.09-140.07v140.07h39.96V99.1l-62.19-.34-43.37,141.78Z"/>
      <path class="cls-1" d="M1149.97,125.75h-.34l.69,2.72.34,2.73.34,5.82-.34,5.14-1.03,5.79-1.01,5.48-2.06,5.11-2.38,5.48-2.73,4.76-3.41,4.82-3.79,4.08-4.08,4.1-3.77,2.76-4.77,3.07-5.13,3.07-5.48,2.38-5.45,1.72-5.83,1.38-5.79,1h-1.73l-2.72-3.76-2.04-2.04-4.1-4.79-4.45-4.1-5.13-3.76-5.11-3.41-5.48-3.07-5.8-2.76-6.17-2.03-7.5-2.07-6.49-1-6.17-.35-2.38-.34-1.37-3.42-2.04-5.13-1.72-5.8-.66-5.14-.69-5.79.34-5.83.66-5.48,1.38-5.45,1.38-5.48,2.72-5.13,2.73-4.77,3.44-4.44,3.76-4.45,4.07-4.1,4.8-3.76,4.79-3.07,5.45-3.07,5.48-2.07,5.48-2.03,5.79-1.38,6.14-1.01h8.9l5.82.32,5.8,1.03,5.79,1.38,5.49,2.04,5.48,2.41,4.76,3.07,5.13,3.41.69.35L1072.09,0l-89.17.69-54.32,87.81,3.76-2.39,5.48-2.72,5.46-2.07,5.8-2.03,5.82-1.04,6.15-1.03,5.79-.32,6.17.32,5.8,1.03,5.82,1.04,5.8,2.03,5.48,2.07,5.11,2.72,4.79,3.07,4.44,3.42,4.11,4.1,3.76,4.45,1.03,1.03-1.38,3.07-2.38,5.48-2.41,5.8-1.35,5.82-1.03,5.8-.69,6.14v5.82l.69,6.14,1.03,6.17,1.69,5.8,2.73,7.17,2.75,5.48.35,1.03-2.41,3.07-2.04,2.07-3.76,3.76-4.44,3.76-4.8,3.41-5.11,2.73-5.46,2.38-5.13,2.06-5.8,1.04-6.15,1-5.46.34-6.15-.34-5.82-.69-5.8-1.35-5.48-1.72-7.86-3.41-5.13-2.73-4.77-3.07-4.44-3.76-4.11-4.1-3.74-4.45-3.42-4.79-2.75-4.79-2.73-6.14-1.37-5.14-1.35-5.45-.35-5.82-.34-5.48.34-3.07v-1.01l-54.66,89.85,42.71,73.8,117.18-.34-3.41-1.01-2.75-1.03-5.46-2.41-5.11-2.73-4.8-3.41-4.44-3.76-4.11-4.1-3.76-4.45-3.05-4.79-3.07-4.76-2.06-5.49-1.7-5.45-1.38-7.2-.35-5.79.35-5.48.34-5.46,1.04-5.48,1.7-5.48,2.39-5.45.68-1.37,3.76-.35h3.08l6.14-1,6.49-1.72,5.82-1.7,5.8-2.41,5.82-3.07,5.13-3.07,5.11-3.76,6.48-5.82,4.11-4.42,3.74-4.79,1.04-1.03h.69l3.41.34,5.48,1.03,6.14,1.35,5.48,2.07,5.45,2.38,5.14,3.07,4.45,3.41,4.44,3.45,3.76,4.07,3.76,4.45,3.07,4.79,2.72,5.14,2.04,5.1,1.72,5.48,1.04,5.48.69,5.45v4.45l-.35,5.83-1.03,5.1-1.72,5.48-2.04,5.45-2.38,4.8-3.76,6.48-3.76,4.1-3.41,4.11-4.79,3.76-4.45,3.41-5.14,3.07-5.45,2.41-5.48,2.04-1.38.34h112.76l46.13-77.53-55.36-89.86Z"/>
    </g>
  </g>
</svg>