<?xml version="1.0" encoding="UTF-8"?>
<svg id="Calque_2" data-name="Calque 2" xmlns="http://www.w3.org/2000/svg" viewBox="0 0 1849.77 300">
  <defs>
    <style>
      .cls-1 {
        fill: #ed2924;
      }

      .cls-2 {
        fill: #5c5c52;
      }
    </style>
  </defs>
  <g id="Calque_1-2" data-name="Calque 1">
    <g>
      <path class="cls-1" d="M296.73,116.55c2.77,4.32,1.85,11.41-5.86,15.72l-169.27,104.52c-5.55,3.08-9.25,3.7-13.26,3.7-12.64,0-20.35-11.1-16.96-24.05l21.89-79.24S15.85,172.97,11.22,174.2c-5.55,1.54-9.56-.62-10.79-4.01-1.23-3.7,0-8.02,5.86-11.72,4.32-3.08,141.52-82.32,141.52-82.32,4.01-1.85,8.32-3.39,12.33-3.08,13.26.92,20.35,12.02,16.34,26.21l-19.12,68.76,125.18-53.96c6.47-2.77,12.33-.62,14.18,2.47"/>
      <path class="cls-2" d="M843.7,259.3l-64.13-129.8v144.91c0,6.47-2.16,12.95-6.78,17.88-4.32,4.62-11.1,7.71-18.5,7.71s-13.87-3.08-18.19-7.71c-4.32-4.62-6.78-11.1-6.78-17.57V25.59c0-7.4,2.47-13.87,7.09-18.5,4.62-4.32,11.1-6.47,17.88-6.47,5.55,0,10.79,1.54,14.49,4.32,4.01,2.77,6.78,6.78,8.94,11.1l86.64,177.29,86.02-177.29c2.16-4.32,4.93-8.32,8.94-11.1,4.01-2.77,8.94-4.32,14.49-4.32,6.78,0,12.95,2.16,17.88,6.47,4.62,4.32,7.4,11.1,7.09,18.5v249.13c0,6.47-2.16,12.95-6.78,17.57-4.32,4.62-10.79,7.71-18.19,7.71s-14.49-2.77-18.81-7.71c-4.32-4.62-6.78-11.1-6.78-17.88v-144.91l-63.51,129.19c-3.39,8.02-11.41,13.87-20.97,13.87-8.63,0-16.65-5.55-20.04-13.26M120.37,27.44c0,13.87,11.1,24.97,24.97,24.97h94.66c31.14,0,54.57,10.17,70.61,27.13,16.03,16.96,24.97,41.32,24.97,70.3s-8.94,53.34-24.97,70.3c-16.03,16.96-39.77,27.44-70.61,27.44h-94.35c-13.87,0-24.97,11.1-24.97,24.97s11.1,24.97,24.97,24.97l96.2-.31c45.02,0,82.32-15.72,107.91-42.24,25.9-26.52,39.77-63.51,39.77-105.45s-14.18-78.93-39.77-105.45C324.17,17.57,286.87,1.85,241.54,1.85h-95.89c-13.87.31-25.28,11.72-25.28,25.59M1610.2,10.79c-4.62,4.62-7.4,11.1-7.4,18.19,0,13.87,11.72,24.36,25.28,24.67h70.61v219.53c0,7.09,2.77,13.87,7.4,18.81,4.62,4.93,11.41,7.71,19.42,7.71,7.4,0,14.18-3.08,18.5-8.02,4.62-4.93,7.09-11.72,7.09-18.81V53.34h73.38c13.87,0,25.28-10.79,25.28-24.67,0-7.09-2.77-13.57-7.4-17.88-4.62-4.62-11.1-7.4-18.19-7.4h-196.09c-6.78.31-13.26,3.08-17.88,7.4M1492.42,51.8c22.51,0,41.01,18.19,41.01,41.01s-18.5,41.01-41.01,41.01h-70.91V51.8h70.91M1369.09,273.18c0,7.09,2.77,13.87,7.4,18.81,4.62,4.93,11.41,8.02,19.12,8.02s14.18-3.08,18.81-8.02c4.62-4.93,7.09-11.72,7.09-18.81v-90.96h65.98l50.26,102.67c1.85,4.32,4.62,8.02,8.63,10.79,4.01,2.77,8.94,4.01,15.11,4.01,7.71,0,14.49-3.39,18.81-8.32,4.32-4.93,6.78-11.41,6.78-17.88,0-4.01-1.23-7.71-2.77-11.41l-45.94-95.27c25.59-15.42,42.86-43.47,42.86-75.54,0-48.41-39.16-87.56-87.56-87.56h-97.74c-7.71,0-14.49,2.77-19.42,7.4-4.93,4.93-7.4,11.72-7.4,19.12v242.96h0ZM544.01,80.47l42.24,98.05h-84.48l42.24-98.05ZM678.75,263.62s-17.88-40.08-111-247.89c-2.16-4.93-5.24-8.94-9.25-11.72s-9.25-4.01-14.49-4.01-10.17,1.23-14.49,4.01c-4.01,2.77-7.09,6.78-9.25,11.41l-111.31,248.2c-1.23,3.08-2.47,6.78-2.47,10.79,0,6.17,1.85,12.33,6.17,17.27,4.32,4.62,10.79,7.71,18.81,7.71h.92c11.41,0,19.73-7.4,22.82-15.42l26.52-57.97h124.56l26.52,57.97c3.08,8.02,11.72,15.72,23.74,15.42,7.71,0,14.49-3.08,18.5-7.71,4.32-4.93,6.17-11.1,6.17-17.27.31-3.7-.92-7.4-2.47-10.79M1183.78,80.47l42.24,98.05h-84.48l42.24-98.05ZM1318.52,263.62s-17.88-40.08-111-247.89c-2.16-4.93-5.24-8.94-9.25-11.72s-9.25-4.01-14.49-4.01-10.17,1.23-14.49,4.01c-4.01,2.77-7.09,6.78-9.25,11.41l-111.31,248.2c-1.23,3.08-2.47,6.78-2.47,10.79,0,6.17,1.85,12.33,6.17,17.27,4.32,4.62,10.79,7.71,18.81,7.71h.92c11.41,0,19.73-7.4,22.82-15.42l26.52-57.97h124.56l26.52,57.97c3.08,8.02,11.72,15.72,23.74,15.42,7.71,0,14.18-3.08,18.5-7.71,4.32-4.93,6.17-11.1,6.17-17.27.62-3.7-.92-7.4-2.47-10.79"/>
    </g>
  </g>
</svg>