<?xml version="1.0" encoding="UTF-8"?>
<svg id="Calque_2" data-name="Calque 2" xmlns="http://www.w3.org/2000/svg" viewBox="0 0 1985.61 300">
  <defs>
    <style>
      .cls-1 {
        fill: #3743bb;
      }
    </style>
  </defs>
  <g id="Calque_1-2" data-name="Calque 1">
    <g>
      <path class="cls-1" d="M917.91,170.84c-34.26,57.51-111.9,51.76-112.38-21.33,0-32.11,16.05-59.9,44.57-59.9,24.68,0,36.66,20.13,36.66,34.98h55.35c-7.43-120.52-197.44-113.1-192.65,25.88.72,124.36,141.13,137.06,194.56,66.37h75v38.1h55.35V44.56h-76.67s-59.9,98-80.27,126.27h.48ZM1019.26,107.1v66.85h-46.48c20.85-33.07,41.93-66.85,41.93-66.85h4.55ZM1085.87,44.56v46h52.47v164.37h55.35V90.57h52.47v-46h-160.54.24ZM1384.91,124.59h-70.92V44.56h-55.35v210.62h55.35v-84.1h70.92v84.1h55.35V44.56h-55.35v80.03ZM1509.26,44.56h-55.35v210.62h136.58v-47.2h-81.23V44.56ZM1764.93,69c-31.15-34.02-92.01-36.66-130.83-15.1-51.52,28.75-61.34,98.24-39.54,149.04,31.15,67.57,133.46,74.52,178.03,20.13,33.07-41.93,32.83-117.65-7.67-154.07ZM1705.74,207.74c-22.76,6.23-49.36-1.44-59.42-24.44-13.66-33.31-6.23-90.33,38.1-93.21,28.75-4.07,53.43,19.17,54.87,47.44,3.11,26.84-3.11,61.82-33.55,70.21h0ZM1929.54,44.56v114.05l-66.37-114.05h-56.07v210.62h56.07v-114.05l66.61,114.53,55.83-.48V44.56h-56.07ZM495.48,44.56h-82.19v210.62h82.19c133.46,2.4,133.46-213.25,0-210.62h0ZM498.11,207.74h-29.23v-115.73h29.23c54.63-.96,54.63,116.69,0,115.73Z"/>
      <path class="cls-1" d="M749.22,91.77v-47.2h-142.81v210.62h142.81v-47.2h-87.7v-36.18h77.39v-43.85h-77.39v-35.94h87.7v-.24ZM342.13,33.78c-36.9-52.23-140.65-42.89-231.7,21.09C-90.37,199.59,3.8,384.33,223.52,257.82V57.98C124.32,209.41,51.48,276.03,28.48,220.92,3.32,129.86,242.69-34.99,305.23,44.08c19.89,28.27-1.2,79.07-47.68,124.84v65.41c81.71-63.5,119.33-150.95,84.58-200.79v.24Z"/>
    </g>
  </g>
</svg>