<?xml version="1.0" encoding="UTF-8"?>
<svg id="Calque_2" data-name="Calque 2" xmlns="http://www.w3.org/2000/svg" viewBox="0 0 1062.15 300">
  <defs>
    <style>
      .cls-1 {
        fill: #253d8d;
      }
    </style>
  </defs>
  <g id="Calque_1-2" data-name="Calque 1">
    <g>
      <path class="cls-1" d="M938.45,176.16c-1.59,33.69-16.46,38.04-19.57,38.95-7.76,2.19-13.07-2.94-18.03-11.03-4.99-8.14-16.6-43.24-20.01-43.18-5.25.06-12.3,43.76-12.4,47.19-.09,3.43-1.49,8.9-6.73,8.53-5.22-.36-8.88-3.86-9.13-9.02.48-28.03,12.79-66.02,14.41-71.4,1.4-4.56,7.71-8.41,12.35-9.58,10.49-2.63,30.91,54.03,36.69,54.17,1.84.01,1.35-.22,1.74-3.9.76-8.19.35-25.4-1.61-38.31-1.69-11.41-4.58-20.09-4.25-22.08.8-4.53,6.81-2.83,10.78,1.63,3.13,3.46,17.46,21.16,15.76,58.03h0ZM840.56,211.7c-8.65,9.65-12.51,8.82-17.89,6.63-4.39-1.78-.85-24.3-2.54-35.9-12.91,1.71-30.91,5.08-37.78,5.03-1.48,0-3.05,6.98-2.98,12.83.14,8.7,1.33,18.72-2.64,19.07-9.17.82-15.73-9.86-16.19-17.46-.46-7.61,2.73-17.13,1.67-18.54-.63-.82-1.38-.82-2.28-2.83-2.36-5.2-4.53-18.28-3.58-18.64.77-.29,1.75-.45,2.61-.39,2.59.2,7.16,6.42,8.57,3.32,1.53-3.3,3.84-23.37,19.14-44.64,4.53-6.26,23.13-13.69,28.5-7.44,17.19,10.31,26.99,41.37,28.41,51.1,1.42,9.4,5.52,38.34-3.02,47.87h0ZM818.99,165.49c-2.41-9.99-7.29-39.32-17.59-35.7-8.62,3.02-15.09,24.41-16.31,37.45,11.11,1.63,23.6-1.05,33.9-1.75ZM743.86,216.16c-5.94,3.44-16.75,11.9-38.31,3.04-10.75-4.43-16.4-18.25-10.25-36.48,2.73-8.05,15.43-42.1,17.64-52.8,2.59-12.74-1.85-18.18-1.07-19.59,3.47-6.3,16.65,11.09,17.42,19.08,2.16,23.06-10.98,53.17-12.49,61.29-2.12,11.19,8.75,7.21,13.9,6.3,5.26-.89,16.91-6.66,21.85-3.61,4.9,3.07,1.08,17.17-8.68,22.77h0ZM656.43,209.32c-10.48,5.69-21.47,4.96-21.87,6.53-14.81,54.86-10.31,82.04-12.77,83.57-5.1,3.17-19.86-7.3-20.21-11.42-2.34-29.39,7.16-63.34,11.89-79.9.12-.42-4.86-1.91-11.68-13.98-3.17-5.63-4.67-17.23-2.02-28.73,3.21-14.02,31.55-50.62,36.64-51.38,4.01-.59,3.32,7.94,1.38,13.02-3.01,7.78-9.78,14.38-14.33,21.25-4.58,6.87-11.58,19.68-7.55,28.83,2.66,6.13,4.58,8.38,6.8,6.7,4.22-3.19,9.58-38.21,54.27-61.78,9.89-5.2,17.16,15.69,16.33,28.55-2.73,43.09-30.28,55.14-36.88,58.75h0ZM682.47,163.91c3.82-6.4,5.6-23.05-2.57-21.4-9.5,1.87-35.83,45.21-35.98,49.21-.14,3.94,13.43-1.74,15.96-2.94,3.86-1.87,12.09-7.51,22.6-24.88h0ZM558.44,138.41c-1.38,4.13-3.44,6.43-5.77,11.18-2.14,4.38,24.39,1.72,32.02,4.1,1.63,1.23,1.32,8.38.96,11.51-.45,4.22-35.92,2.16-38.46,4.56-1.27,1.16-9.18,18.97-6.69,20.44,4.13,2.41,37.55-8.36,42.69-4.76,7.86,5.56,7.57,9.94,4.07,13.44-3.26,3.25-47.66,27.41-59.53,15.3-8.19-8.37-10.2-12.11-9.36-23.9.92-12.47,8.17-18.54,7.18-20.5-2.45-4.85-1.92-11.98-.48-14.86,1.36-2.74,6.61-.35,7.18-1.36,2.29-4.27,5.22-14.51,7.27-17.57,2.02-3.07-10.54-2.37-12.4-4.82-1.83-2.48-8.31-10.83,1.12-10.89,23.3-.16,53.62-5.87,61.58-4.22,6.24,1.27,18.18,12.89,12.49,17.63-11.23,7.63-30.85,1.37-43.87,4.72h0ZM504.29,196.57c-7.15,10.63-14.46,9.39-20.09,6.18-15.41-8.76-24.79-52.8-32.08-52.08-4.29.43-2.29,53.49-5.75,56.03-3.45,2.54-5.75,7.11-13.19.39-3.01-2.76-1.06-27.67-1.06-27.67,1.35-20.19,3.6-54.54,13.4-59.5,8.02-4.06,18,14.59,22.63,21,4.58,6.41,18.14,36.35,22.23,35.7,4.47-.72.44-26.19-.13-32.07-2.08-23.18-15.05-41.91-9.28-46.15,4.26-3.13,21.91,15.61,26.14,32.62,2.53,10.15,13.35,41.47-2.82,65.55h0ZM413.11,129.25c-24.54.4-61.93,3.17-66.23,5.97-3.68,2.4-4.05,3.72,4.44,6.5,14.22,4.72,59.22-.97,70.93,22.06,2.81,7.24,2.55,20.74-2.59,30.19-5.87,10.79-31.83,16.98-50.08,15.17-12.74-1.28-38.71-8.85-39.68-28.78.61-7.98,2.38-14.12,16.43-18.23,15.91-4.64,49.8,5.16,51.76,11.23,1.26,3.94-18.46,10.15-27.82,7.3-7.68-2.34-22.87-16.44-30.83-3.12-1.88,5.7,2.62,8.3,6.85,9.7,24.48,5.75,59.07-1.53,62.95-10.66,3.94-9.25-10.14-12.08-17.32-15.07-20.8-8.62-49.33-1.06-62.22-10.39-7.21-9.09-2.64-17.29.06-22.63,11.5-18.26,54.69-16.89,65.65-16.52,9.75.35,29.92.87,31.02,5.48,2.24,9.13-8.14,10.31-13.32,11.79h0ZM309.89,208.74c-3.8,1.85-15.65-1.35-14.48-6.24-3.07-29.32.28-61.64,3.79-86.39,1.78-5.15,10.86-9.54,14.46,8.7,2.27,35.25,2.74,45,2.28,75.12-.02,0,.2,5.78-6.05,8.81h0ZM349.15,33.73c1.35.89,13.24-3.68,20.2,10.69,6.31,13.02-17.45,33.61-36.41,43.28-12.12,5.69-25.71,6.42-39.35,2.85-5.53,2.44-4.82,11.05-12.22,7.6-1.18-1.45-4.44-10.27-.69-15-8.77-7.18-8.36-21.22-4.73-29.72,10.07-17.11,28.53-29.05,47.06-31.87,14.64-2.24,23.81,2.04,26.14,12.17h0ZM350.37,63.79c5.61-5.22,10.31-14.15,3.19-18.7-16.95-10.82-39.31,18.04-53.18,31.82,11.44,5.73,32.29-1.75,35.23-3.45,2.95-1.69,9.17-4.44,14.77-9.66ZM315.4,41.39c-3.94-6.21-22.39,8.17-28.05,15.2-5.65,7.04-2.89,10.96-.45,13.18,10.11-13.62,19.34-21.61,28.5-28.38h0ZM985.21,221.99c16.71,1.45,34.25-6.24,40.63-12.01,24.42-22.09,19.3-42.28,12.86-53.28-19.94-34.08-68.49-41.23-82.97-35.44-14.42,5.78-14.64,10.64-14.07,14.41.87,5.8,5.59,6.89,7.02,5.69,1.02-.8,1.74-1.32.95-4.07-.8-2.72,2.85-5.42,6.85-5.95,16.36-2.16,36.49,11.16,42.06,15.2,23.42,17.06,28.08,39.68,24.57,46.96-3.53,7.28-23.81,9.71-40.24,5.81,0,0-.88-19.61.37-46.1.18-3.68-2.68-6.74-7.91-5.28-9.09,2.53-12.01,38.42-12.06,40.1-.08,2.45-4.79-3.84-6.79-6.33-1.88-2.44-6.91-1.96-8.21,1.61-.54,1.42-6.01,14.36,3.81,24.18,3.32,3.26,8.38,6.1,10.61,7.45,1.4,7.91,4.1,16.69,11.7,15.69,6.16-.96,8.64.58,10.83-8.65h0ZM107.21,188.47c-33.49-13.03-56.81-31.96-56.81-43.09,0-7.87,29.83-10.7,58.03-11.66-.66,17.57-1.24,37.94-1.22,54.75ZM133.56,215.19c15.29,4.92,30.64,7.86,44.29,7.86,51.59,0,105.62-30.34,105.62-77.97.01-63.75-113.82-145.09-218.21-145.09C34.93,0,18.21,4.41,12.61,7.88,8.16,10.64,0,19.41,0,23.05c0,8.2,9.41,8.5,13.67,8.5s9.69-.92,9.69-4.55c0-2.43-2.12-3.96-3.93-3.96s-9.71,2.75-9.71-1.8c0-3.64,23.06-6.07,42.78-6.07,114.42,0,204.85,80.1,204.85,130.18,0,30.04-26.07,57.36-77.07,57.36-16.19,0-32.12-2.24-46.95-5.94-.37-12.68-.86-39.63-1.06-63.51,3.16-.02,6.16-.06,8.86-.06,21.24,0,58.28,6.07,58.28,13.36s-8.81,10.48-12.3,12c-2.42,1.06.16,2.74,1.97,3.65s3.79,1.67,7.28,1.67c8.22,0,21.84-8.81,21.84-20.05,0-16.08-23.34-33.67-71.62-33.67-3.75,0-8.68.21-14.41.69.01-9.94.16-17.66.44-21.03.92-10.27-4.23-22.78-7.58-26.7-3.33-3.96-7.26-4.25-9.4,1.82-2.14,6.06-5.16,23.67-5.47,28.85-.09,1.38-.49,8.99-.97,19.85-31.14,4.86-67,15.07-67,32.03,0,18.2,29.71,42.75,65.32,59.27.13,3.44.29,6.46.54,9,.6,6.37,1.22,16.4,13.96,16.4,8.17.02,10.87-6.81,11.57-15.16h0ZM1054.12,197.84c.45.01,1.64,0,2.3,1.28.28.56.33,1.06.33,1.33s-.06.54-.13.78c-.08.36-.4,1.12-1.2,1.55-.2.12-.43.2-.86.32.51.28.63.39.99.87l1.53,2.23.61.95-.87.64-.59-.87-1.38-2.05c-.16-.22-.35-.49-.49-.76-.06-.06-.2-.29-.42-.46-.33-.25-.73-.28-1.49-.23v4.15h-1.07v-9.68h2.75v-.03s.01,0,.01,0ZM1052.46,202.46c.42,0,.87.01,1.31-.01.76-.03,1.06-.2,1.35-.44.21-.21.6-.65.6-1.48,0-.16,0-.44-.14-.77-.18-.48-.61-.83-1.06-1-.4-.11-.91-.11-.99-.11-.35,0-.72.03-1.06.06v3.75h0Z"/>
      <path class="cls-1" d="M1053.98,210.9c2.19,0,4.24-.85,5.8-2.38,1.55-1.56,2.37-3.6,2.37-5.78s-.82-4.23-2.37-5.78c-1.56-1.57-3.61-2.38-5.8-2.38-4.49,0-8.15,3.64-8.15,8.17,0,2.17.82,4.22,2.38,5.78,1.53,1.51,3.58,2.37,5.77,2.37h0ZM1046.43,202.73c0-2.02.78-3.93,2.22-5.35,1.4-1.42,3.32-2.22,5.33-2.22s3.9.79,5.33,2.22c1.42,1.43,2.21,3.33,2.21,5.35,0,4.14-3.41,7.54-7.55,7.54-2.01,0-3.93-.77-5.33-2.21-1.42-1.42-2.21-3.3-2.21-5.33h0ZM698.68,247.82c5.28,0,7.87.37,10.76,1.62,4.63,1.98,7.51,5.89,7.51,10.07s-2.66,7.97-7.06,10.05c-3.12,1.51-5.35,1.83-11.64,1.83h-7.29v15.86h-12.42v-39.44h20.14ZM690.97,264.19h4.04c6.86,0,9.25-1.16,9.25-4.64,0-3.22-2.45-4.43-8.97-4.43h-4.33v9.07h0ZM809.2,287.26h-13.2l-4.07-7.81h-22.03l-3.68,7.81h-13l19.87-39.44h14.21l21.9,39.44ZM773.18,272.55h15.17l-7.95-15.24-7.22,15.24ZM872.39,247.82c7.14,0,9.74.42,12.92,1.98,3.89,2.01,6.44,5.65,6.44,9.35,0,2.89-1.52,5.64-4.19,7.58-1.31.85-2.09,1.26-4.26,2.06,2.59,1.04,4.77,3.29,7.07,7.42l1.97,3.34,1.31,2.2,1.52,2.66,1.32,2.19.36.65h-13.51l-.29-.42-.95-1.63-.93-1.8-1.46-2.55-1.86-3.33c-1.88-3.44-4.26-5.63-6.58-6.16-1.07-.21-1.38-.21-3.54-.21h-1.79v16.07h-12.42v-39.44l18.88.03h0ZM865.87,264.01h5.1l.96-.06,1.52-.06c3.24-.06,5.48-1.84,5.48-4.39,0-3-2.3-4.52-6.85-4.52h-6.2v9.03h-.01ZM959.88,287.26h-12.42v-39.44h12.42v39.44ZM1044.38,258.47l-.86-.35c-5.93-2.37-10.69-3.48-15.03-3.48s-7.37,1.26-7.37,3.18c0,1.67,2.53,3.12,8.02,4.69l3.88,1.13c9.48,2.74,13.59,6.49,13.59,12.44,0,6.99-7.75,11.68-19.29,11.68-4.18,0-8.03-.64-13.01-2.16-2.88-.92-3.09-.97-4.41-1.67v-8.49c3.62,1.78,5.48,2.66,7.94,3.41,3.12,1.04,6.07,1.49,9.13,1.49,4.83,0,7.42-1.21,7.42-3.58,0-1.96-1.64-3.07-6.63-4.43l-2.66-.76c-3.81-1.09-5.87-1.8-8.18-2.84-1.88-.8-3.38-1.78-4.63-2.89-2-1.85-3.22-4.57-3.22-7.34,0-6.78,7.36-11.21,18.64-11.21,5.48,0,10.4.87,16.68,3.06v8.11h0Z"/>
    </g>
  </g>
</svg>