<?xml version="1.0" encoding="UTF-8"?>
<svg id="Calque_2" data-name="Calque 2" xmlns="http://www.w3.org/2000/svg" viewBox="0 0 964.62 300">
  <defs>
    <style>
      .cls-1 {
        fill: #fd0;
      }

      .cls-2 {
        fill: #f7a600;
      }

      .cls-3 {
        fill: #fdc300;
      }

      .cls-4 {
        fill: #001f44;
      }
    </style>
  </defs>
  <g id="Calque_1-2" data-name="Calque 1">
    <g id="Calque_2-2" data-name="Calque 2">
      <g id="Layer_1" data-name="Layer 1">
        <polygon class="cls-3" points="148.7 55.09 145.04 8.74 115.35 20.88 81.51 55.09 148.7 55.09"/>
        <polygon class="cls-1" points="147.3 43.47 74.95 58.73 71.17 106.37 156.79 90.29 147.3 43.47"/>
        <polygon class="cls-2" points="6.88 197.04 27.99 239.63 74.95 245.09 44.01 187.93 6.88 197.04"/>
        <polygon class="cls-3" points="52.38 193.4 81.51 248.73 148.7 251.27 138.5 169.38 52.38 193.4"/>
        <polygon class="cls-1" points="85.87 241.08 150.14 251.27 150.14 292.4 108.44 278.93 85.87 241.08"/>
        <polygon class="cls-1" points="296.24 183.16 294.09 112.91 249.68 117.27 239 198.26 296.24 183.16"/>
        <polygon class="cls-2" points="291.42 107.09 270.31 64.49 223.35 59.04 254.29 116.18 291.42 107.09"/>
        <polygon class="cls-3" points="152.72 253.66 156.36 300 186.05 287.87 219.91 253.66 152.72 253.66"/>
        <polygon class="cls-2" points="56.02 101.68 48.75 186.12 152.69 181.74 150.88 113.69 56.02 101.68"/>
        <polygon class="cls-2" points="226.45 245.9 150.14 259.64 152.72 195.06 241.74 193.47 226.45 245.9"/>
        <polygon class="cls-3" points="236.57 201.97 243.85 117.52 150.88 113.67 141.73 189.97 236.57 201.97"/>
        <polygon class="cls-1" points="249.02 115.35 219.91 60.03 152.72 57.48 162.9 139.37 249.02 115.35"/>
        <polygon class="cls-3" points="215.53 67.67 151.26 57.48 151.26 16.34 192.97 29.81 215.53 67.67"/>
        <polygon class="cls-3" points="102.25 280.74 95.7 249.45 44.01 238.53 68.04 263.28 102.25 280.74"/>
        <polygon class="cls-2" points="199.16 24.02 205.72 55.33 257.39 66.23 233.37 41.49 199.16 24.02"/>
        <polygon class="cls-1" points="110.25 13.95 93.52 47.8 34.55 63.81 69.85 32.15 110.25 13.95"/>
        <polygon class="cls-2" points="489.39 0 495.17 23.87 414.76 23.84 462.81 8.62 489.39 0"/>
        <polygon class="cls-2" points="191.14 290.17 207.9 256.31 266.86 240.3 231.55 271.98 191.14 290.17"/>
        <polygon class="cls-3" points="271.22 243.95 299.25 190.44 234.83 198.81 215.53 243.95 271.22 243.95"/>
        <polygon class="cls-3" points="30.18 60.17 2.15 113.67 66.58 105.32 85.87 60.17 30.18 60.17"/>
        <polygon class="cls-2" points="0 111.49 2.15 181.74 46.56 177.38 52.38 98.42 0 111.49"/>
        <polygon class="cls-4" points="341.92 44.5 358.42 42.12 358.42 226.86 341.92 229.28 341.92 44.5"/>
        <polygon class="cls-4" points="401.53 44.5 499.25 44.5 503.21 59.69 417.5 59.69 417.5 126.24 489.92 126.24 489.92 141.17 417.5 141.17 417.5 211.43 506.69 211.43 503.21 226.86 401.53 226.86 401.53 44.5"/>
        <path class="cls-4" d="M584.94,214.91c23.96,0,40.72-15.46,40.72-35.69,0-28.23-22.9-32.49-50.57-41.02-28.22-8.52-43.13-22.62-43.13-48.17s21.59-49.26,54.52-49.26c19.46,0,33.89,6.39,49.27,21.57l-10.67,12.24c-13.26-12.52-24.5-18.37-39.66-18.37-20.19,0-36.69,14.98-36.69,34.14,0,11.79,5.58,20.51,16.75,26.62,9.59,5.33,22.38,7.74,36.75,12.51,26.86,9.06,40.46,25.3,40.46,48.21,0,28.73-22.88,53.04-58.04,53.04-23.15,0-43.64-11.79-56.7-32.49l13.05-9.58c10.92,17.58,25.56,26.37,43.91,26.37"/>
        <polygon class="cls-4" points="677.84 44.5 775.56 44.5 779.52 59.69 693.8 59.69 693.8 126.24 766.23 126.24 766.23 141.17 693.8 141.17 693.8 211.43 783 211.43 779.52 226.86 677.84 226.86 677.84 44.5"/>
        <path class="cls-4" d="M964.54,205.29c-17.56,16.77-39.93,25.53-65.48,25.53s-48.18-8.77-65.76-25.53c-37.4-35.48-40.01-94.2-5.89-132.86,17.83-20.76,42.88-31.94,71.61-31.94,23.96,0,45.25,7.72,62.55,22.9l-10.31,11.98c-15.46-13-33.03-19.67-52.19-19.67-43.13,0-79.08,33.55-79.08,79.87s35.95,79.86,78.81,79.86c18.07.04,35.62-6.07,49.77-17.31v-56.95h-56.52l3.27-14.94h69.22v79.06Z"/>
        <path class="cls-4" d="M344.66,284.38c2.12,2.87,4.69,4.42,7.18,4.42,3.25.17,6.02-2.33,6.19-5.58,0-.11,0-.21,0-.32,0-3.86-2.46-5.01-7.23-6.75-6.63-2.39-9.62-4.95-9.62-10.81s4.73-10.31,11.21-10.31c4.12.04,8,1.91,10.59,5.11l-3.49,3.79c-2.43-2.65-4.63-3.96-7.18-3.96-2.84-.24-5.34,1.86-5.58,4.7-.01.16-.02.32-.02.48,0,3.52,2.45,4.67,6.69,6.25,6.85,2.55,10.17,5.23,10.17,11.7,0,6.01-4.79,10.86-11.63,10.86-4.63.08-8.98-2.24-11.48-6.14l4.18-3.42Z"/>
        <path class="cls-4" d="M386.58,294.09c-3.96.08-7.85-1.04-11.17-3.2-9.03-6.74-10.88-19.51-4.15-28.54.48-.64,1-1.26,1.55-1.84,3.58-3.55,8.44-5.51,13.48-5.44,2.14.01,4.27.34,6.32.97l.81,5.81c-2.11-1.19-4.49-1.81-6.91-1.78-7.76,0-13.7,6.03-13.7,14.5-.12,3.87,1.31,7.63,3.96,10.45,2.5,2.54,5.9,3.99,9.46,4.04,1.76.04,3.52-.26,5.17-.88.86-.36,1.7-.78,2.5-1.25l-.71,5.82c-2.09.91-4.35,1.38-6.63,1.36"/>
        <polygon class="cls-4" points="398.06 255.96 403.45 255.4 403.45 271.67 421.54 271.67 421.54 255.96 426.98 255.4 426.98 293.3 421.54 293.78 421.54 276.6 403.45 276.6 403.45 293.3 398.06 293.78 398.06 255.96"/>
        <path class="cls-4" d="M436.98,260.51c7.9-7.3,20.09-7.3,27.99,0,3.71,3.72,5.73,8.81,5.58,14.07.15,5.28-1.87,10.39-5.58,14.14-7.93,7.23-20.06,7.23-27.99,0-3.7-3.76-5.72-8.87-5.6-14.14-.13-5.26,1.89-10.34,5.6-14.07M464.98,274.58c0-8.59-6-14.6-14.04-14.6s-14.01,6.01-14.01,14.6,5.98,14.62,14.01,14.62,14.04-6.01,14.04-14.62"/>
        <path class="cls-4" d="M478.89,260.51c7.9-7.3,20.09-7.3,27.99,0,3.72,3.7,5.76,8.78,5.61,14.03.15,5.29-1.88,10.4-5.61,14.14-7.93,7.23-20.06,7.23-27.99,0-3.69-3.77-5.71-8.87-5.6-14.14-.12-5.26,1.9-10.33,5.6-14.07M506.95,274.54c0-8.59-6-14.6-14.04-14.6s-14.03,6.01-14.03,14.6,5.98,14.62,14.03,14.62,14.04-6.01,14.04-14.62"/>
        <polygon class="cls-4" points="517.02 255.96 522.44 255.4 522.44 288.21 537.88 288.21 536.08 293.3 517.02 293.3 517.02 255.96"/>
        <path class="cls-4" d="M558.72,260.51c7.9-7.3,20.09-7.3,27.99,0,3.72,3.72,5.74,8.81,5.6,14.07.14,5.28-1.88,10.39-5.6,14.14-7.93,7.24-20.07,7.24-27.99,0-3.7-3.78-5.71-8.9-5.55-14.19-.14-5.26,1.89-10.35,5.61-14.07M586.77,274.54c0-8.59-5.97-14.6-14-14.6s-14.03,6.01-14.03,14.6,5.97,14.62,14.03,14.62,14-6.01,14-14.62"/>
        <polygon class="cls-4" points="596.82 255.96 615.88 255.96 616.93 260.82 602.25 260.82 602.25 271.7 613.51 271.7 613.51 276.6 602.25 276.6 602.25 293.3 596.82 293.78 596.82 255.96"/>
        <polygon class="cls-4" points="637.41 255.05 653.03 283.2 667.67 254.96 671.3 293.44 665.96 293.4 664.11 272.15 653.09 293.93 641.21 272.12 639.97 293.56 634.79 293.56 637.41 255.05"/>
        <polygon class="cls-4" points="845.47 255.05 861.07 283.2 875.72 254.96 879.36 293.44 873.99 293.4 872.15 272.15 861.12 293.93 849.26 272.12 847.99 293.56 842.85 293.56 845.47 255.05"/>
        <path class="cls-4" d="M690.75,254.8l19.45,38.69h-5.89l-6.35-12.76h-14.73l-6.37,12.72h-5.32l19.21-38.65ZM695.76,276.2l-5.22-10.65-5.16,10.65h10.37Z"/>
        <polygon class="cls-4" points="710.76 254.96 735.01 280.88 735.01 255.96 740.44 255.4 740.44 294.21 716.15 268.26 716.22 293.4 710.76 293.44 710.76 254.96"/>
        <path class="cls-4" d="M760.23,254.8l19.42,38.62h-5.89l-6.32-12.72h-14.73l-6.26,12.67h-5.58l19.38-38.57ZM765.23,276.2l-5.22-10.65-5.16,10.65h10.37Z"/>
        <path class="cls-4" d="M797.17,294.17c-5.22.21-10.3-1.76-14.01-5.44-3.73-3.75-5.75-8.86-5.6-14.14-.33-10.47,7.88-19.22,18.35-19.56.46-.01.92-.01,1.38,0,4.95-.22,9.76,1.65,13.26,5.14l-3.48,3.7c-2.62-2.62-6.2-4.03-9.9-3.9-8.04,0-14.01,6.03-14.01,14.62s5.81,14.57,13.75,14.57c3.33.04,6.57-1.05,9.19-3.09v-9.15h-11.65l1.92-4.7h14.9v16.66c-3.87,3.46-8.89,5.35-14.09,5.29"/>
        <polygon class="cls-4" points="816.84 255.96 836.48 255.96 837.7 260.82 822.25 260.82 822.25 271.21 834.51 271.21 834.51 276.1 822.25 276.1 822.25 288.12 838.93 288.12 837.35 293.3 816.84 293.3 816.84 255.96"/>
        <polygon class="cls-4" points="883.9 255.96 903.51 255.96 904.69 260.82 889.27 260.82 889.27 271.21 901.56 271.21 901.56 276.1 889.27 276.1 889.27 288.12 905.98 288.12 904.38 293.3 883.9 293.3 883.9 255.96"/>
        <polygon class="cls-4" points="909.12 254.96 933.36 280.88 933.36 255.96 938.79 255.4 938.79 294.21 914.48 268.26 914.48 293.41 909.12 293.4 909.12 254.96"/>
        <polygon class="cls-4" points="950.49 260.9 940.8 260.9 942.66 255.96 964.62 255.96 964.62 260.9 955.86 260.9 955.86 293.3 950.49 293.77 950.49 260.9"/>
      </g>
    </g>
  </g>
</svg>