<?xml version="1.0" encoding="UTF-8"?>
<svg id="Calque_2" data-name="Calque 2" xmlns="http://www.w3.org/2000/svg" xmlns:xlink="http://www.w3.org/1999/xlink" viewBox="0 0 981.42 300.04">
  <defs>
    <style>
      .cls-1 {
        fill: #d5130d;
      }

      .cls-2 {
        fill: #fff;
      }

      .cls-3 {
        fill: none;
      }

      .cls-4 {
        clip-path: url(#clippath-1);
      }

      .cls-5 {
        fill: #ff780a;
      }

      .cls-6 {
        fill: #fed170;
      }

      .cls-7 {
        clip-path: url(#clippath);
      }
    </style>
    <clipPath id="clippath">
      <rect class="cls-3" x="0" y="0" width="981.4" height="300"/>
    </clipPath>
    <clipPath id="clippath-1">
      <rect class="cls-3" x="0" y="0" width="981.4" height="300"/>
    </clipPath>
  </defs>
  <g id="Calque_1-2" data-name="Calque 1">
    <g class="cls-7">
      <g class="cls-4">
        <g>
          <path class="cls-1" d="M488.81,143.88c24.47-13.37,12.85-19.88-.29-32.06-13.96-11.66-22.34-28.69-23.06-46.87,0-4.25.49-8.48,1.42-12.63-.56,0-1.12.06-1.73.1l-415.53,11.63c-17.93-.17-35.44,10.92-36.18,24.79v96.36c-.44,9.58,5.11,18.43,13.92,22.21.73.05,1.45.11,2.2.11l393.96,28.9,38.25,2.81c2.48.02,4.97-.17,7.42-.56,7.05-.92,13.78-3.49,19.64-7.5v-87.29h-.02Z"/>
          <path class="cls-6" d="M981.25,141.33c.22-17.18-13.53-31.28-30.7-31.5-.93-.01-1.85.02-2.78.09h-5.89c14.41,1.33,25.53,13.25,25.87,27.71l.15,86.7c-1.03,17.45-15.27,31.19-32.75,31.6l-416.57,23.01c-14.74,1.62-28-9.02-29.62-23.77-.15-1.4-.2-2.82-.13-4.22v17.6c-.95,16.41,11.58,30.49,27.99,31.44,1.27.07,2.55.07,3.83-.02l427.19-25.82c18.7-1.31,33.29-16.72,33.58-35.47l-.17-97.34Z"/>
          <path class="cls-5" d="M967.73,137.61c-.34-14.47-11.47-26.38-25.87-27.71l-355.69-1.16c-20.89,34.77-66.17,45.92-97.37,45.92v96.27c-.72,14.81,10.71,27.4,25.53,28.12,1.41.07,2.82.03,4.22-.13l416.57-23.01c17.47-.41,31.71-14.15,32.75-31.6l-.14-86.7Z"/>
          <path class="cls-6" d="M464.18,34.31L37.21,46.83C18.79,46.62.79,58.58.03,73.51v106.64c-.73,14.32,10.18,26.14,27.32,27.25-8.82-3.78-14.36-12.63-13.92-22.21v-96.36c.74-13.87,18.25-24.96,36.18-24.79l413.99-11.59c1.34-6.4,3.69-12.55,6.95-18.22-2.12-.12-4.25-.09-6.37.09"/>
          <path class="cls-2" d="M126.97,169.4h-42.14v-69.41c.03-3.57-1.47-6.97-4.13-9.35-2.98-2.31-6.67-3.52-10.43-3.41-1.23-.14-2.35.74-2.5,1.97-.01.13-.02.26-.01.38v93.43c0,.42.34.76.76.76h58.5c.55,0,.99-.44.99-.99v-12.37c0-.56-.45-1.01-1.01-1.01"/>
          <path class="cls-2" d="M190.28,114.43c-.7.77-1.29,1.62-1.78,2.53-1.69-1.15-3.25-2.16-4.44-2.86-11.72-6.64-26.08-6.64-37.8,0-5.64,3.27-10.31,7.99-13.5,13.67-3.31,5.92-5.01,12.61-4.93,19.39-.05,6.62,1.65,13.14,4.94,18.89,3.22,5.66,7.88,10.37,13.5,13.66,5.7,3.37,12.22,5.12,18.84,5.06,6.66.07,13.21-1.65,18.97-4.98,1.01-.56,1.97-1.23,2.91-1.91v1.04c0,2.67,2.15,4.84,4.82,4.84h4.95c2.67,0,4.83-2.17,4.82-4.84v-68.49h-1.55c-3.66-.08-7.19,1.37-9.74,3.99M184.94,159.43c-1.88,3.61-4.67,6.66-8.09,8.86-3.47,2.2-7.51,3.33-11.62,3.27-4.18.06-8.29-1.1-11.81-3.35-3.47-2.25-6.29-5.37-8.16-9.06-1.97-3.84-2.99-8.09-2.96-12.4-.04-4.26.95-8.46,2.89-12.26,1.85-3.62,4.64-6.67,8.07-8.84,3.55-2.21,7.66-3.34,11.85-3.28,4.14-.05,8.2,1.14,11.67,3.4,3.47,2.29,6.29,5.44,8.17,9.15,1.96,3.79,2.98,7.99,2.96,12.26.04,4.26-.98,8.47-2.95,12.24"/>
          <path class="cls-2" d="M360.58,114.12h0c-12-6.64-26.57-6.64-38.56,0-5.73,3.24-10.49,7.97-13.77,13.67-3.37,5.9-5.11,12.59-5.03,19.39-.05,6.64,1.69,13.16,5.03,18.89,6.85,11.69,19.43,18.83,32.98,18.72,6.78.07,13.45-1.65,19.36-4.98,5.75-3.26,10.5-8.01,13.77-13.75,3.35-5.88,5.09-12.55,5.02-19.32.04-6.65-1.69-13.2-5.03-18.96-3.28-5.71-8.04-10.43-13.77-13.67M361.48,159.41c-1.93,3.62-4.78,6.68-8.26,8.86-3.56,2.2-7.67,3.34-11.86,3.27-4.26.07-8.45-1.09-12.07-3.35-3.53-2.23-6.4-5.36-8.32-9.06-2.01-3.82-3.05-8.08-3.02-12.4-.04-4.27.97-8.48,2.95-12.26,3.92-7.58,11.79-12.27,20.32-12.12,4.22-.05,8.36,1.13,11.91,3.4,3.53,2.27,6.4,5.43,8.34,9.15,2,3.78,3.04,7.99,3.02,12.26.04,4.27-1,8.48-3.01,12.24"/>
          <path class="cls-2" d="M393.75,114.44c-2.16,2.28-3.34,5.3-3.31,8.44v57.74c0,1.73,1.4,3.14,3.13,3.14h8.34c1.73,0,3.13-1.41,3.13-3.14h0v-70.18h-1.55c-3.65-.07-7.17,1.38-9.72,4"/>
          <path class="cls-2" d="M400.05,81.71c-.81-.18-1.63-.29-2.46-.33-2.6-.02-5.09,1.07-6.83,3-1.83,1.88-2.84,4.4-2.81,7.01-.03,2.47.97,4.84,2.76,6.55,1.64,1.71,3.87,2.74,6.24,2.87.33.03.66.05.98.05,2.39.02,4.7-.86,6.47-2.46h0c2.1-1.78,3.28-4.41,3.23-7.16-.03-4.56-3.17-8.5-7.6-9.56"/>
          <path class="cls-2" d="M461.49,109.52c-.56-.05-1.5-.1-3.14-.1-4.85.03-9.59,1.39-13.72,3.94-2.41,1.45-4.56,3.31-6.34,5.48v-3.98c0-2.43-1.96-4.4-4.39-4.41h-5.66c-2.43,0-4.4,1.98-4.39,4.41v68.93h1.51c3.66.08,7.19-1.34,9.77-3.94,2.16-2.25,3.35-5.26,3.31-8.39v-23.55c-.18-6.01,1.49-11.92,4.78-16.95,3.42-4.61,8.99-7.1,14.7-6.56.76,0,2.01.09,3.69.28h0c1.13.04,2.14-.7,2.43-1.79v-10.69c-.18-1.35-1.21-2.43-2.55-2.67"/>
          <path class="cls-2" d="M262.86,101.19h39.41c3.05,0,5.53-2.48,5.53-5.53v-6.19c0-3.05-2.48-5.53-5.53-5.53h-60.75c-3.05,0-5.51,2.48-5.52,5.52v91.17c.13,1.85,1.72,3.25,3.58,3.14h9.69c1.77.11,3.3-1.23,3.41-3,0-.05,0-.09,0-.14v-23.01c.09-5.57,4.63-10.04,10.2-10.05h17.77c7.68-.09,14.26-5.49,15.86-13,.33-1.02.19-2.14-.38-3.05-.75-.85-1.88-1.29-3.01-1.16h-30.25c-5.58-.01-10.12-4.5-10.2-10.09v-9.04c.09-5.57,4.63-10.04,10.2-10.05"/>
          <path class="cls-2" d="M665.11,165.77c-12.16-6.39-26.69-6.39-38.85,0-5.72,3.06-10.51,7.6-13.87,13.14-3.38,5.62-5.14,12.07-5.06,18.64-.04,6.41,1.71,12.7,5.06,18.16,3.39,5.51,8.17,10.04,13.85,13.12,5.93,3.26,12.6,4.93,19.36,4.87,6.8.08,13.51-1.57,19.5-4.79,5.73-3.08,10.52-7.64,13.87-13.22,3.36-5.6,5.12-12.03,5.06-18.56.04-6.43-1.72-12.73-5.06-18.22-3.36-5.54-8.15-10.08-13.87-13.14M666.03,209.31c-6.39,11.23-20.68,15.15-31.91,8.75-3.74-2.13-6.82-5.25-8.9-9.01-2.02-3.65-3.06-7.76-3.04-11.92-.04-4.12.98-8.18,2.96-11.78,1.95-3.53,4.81-6.46,8.29-8.49,3.7-2.14,7.91-3.23,12.18-3.16,4.23-.06,8.38,1.08,11.99,3.27,3.52,2.15,6.42,5.18,8.4,8.79,2.01,3.6,3.05,7.66,3.04,11.78.03,4.12-1.01,8.18-3.03,11.77"/>
          <path class="cls-2" d="M747.02,165.32h0c-2.38,2.11-3.72,5.16-3.68,8.34v28.33c.16,5-1.74,9.85-5.26,13.4-3.5,3.57-8.35,5.49-13.34,5.3-4.73.36-9.37-1.38-12.7-4.76-3.11-3.69-4.69-8.43-4.44-13.25v-27.85c.15-3.84-1.42-7.56-4.29-10.12-2.27-1.85-5.12-2.84-8.05-2.78h-2.22v43.09c-.32,7.6,2.36,15.03,7.47,20.67,5.6,5.54,13.28,8.44,21.14,7.99,8.22.29,16.17-2.96,21.82-8.94v6.36c0,.73.59,1.33,1.33,1.33h11.74c.73,0,1.33-.59,1.33-1.32h0v-69.19h-2.22c-3.21-.04-6.32,1.17-8.65,3.37"/>
          <path class="cls-2" d="M783.43,134.61c-.82-.18-1.65-.28-2.48-.31-5.32,0-9.65,4.3-9.69,9.62-.02,2.4.99,4.69,2.78,6.3,1.69,1.66,3.92,2.64,6.28,2.76.33.03.66.04.98.04,2.39.02,4.7-.82,6.53-2.36h0c2.09-1.67,3.29-4.21,3.25-6.88,0-2.15-.77-4.23-2.18-5.85-1.4-1.7-3.33-2.87-5.48-3.32"/>
          <path class="cls-2" d="M816.14,135.9h-4.5c-2.85,0-5.17,2.29-5.18,5.15h0v86.52c0,2.85,2.32,5.16,5.18,5.15h4.51c2.85,0,5.17-2.29,5.18-5.15h0v-86.5c0-2.85-2.33-5.16-5.18-5.15h0"/>
          <path class="cls-2" d="M850.1,135.9h-7.69c-1.97,0-3.57,1.59-3.58,3.55v89.7c0,1.97,1.6,3.56,3.57,3.56h7.69c1.97,0,3.57-1.59,3.58-3.55h0v-89.71c0-1.97-1.61-3.56-3.58-3.55"/>
          <path class="cls-2" d="M777.07,166.1c-2.15,2.15-3.35,5.07-3.32,8.11v54.28c0,2.34,1.91,4.24,4.25,4.23h6.19c2.34,0,4.25-1.88,4.26-4.22h0v-66.27h-1.61c-3.64-.08-7.16,1.32-9.76,3.88"/>
          <path class="cls-2" d="M932.34,177.75c-2.64-5.45-6.83-10-12.06-13.06-5.84-3.26-12.44-4.88-19.12-4.69-6.51-.06-12.91,1.69-18.48,5.06-5.41,3.26-9.89,7.85-13,13.34-9.93,17.23-4.01,39.24,13.22,49.16.17.1.34.19.5.28,5.87,3.27,12.5,4.95,19.23,4.88,6.35.06,12.62-1.46,18.24-4.44,4.78-2.54,8.77-6.33,11.56-10.97,0-.02,0-.03,0-.05,1.03-1.81.41-4.11-1.38-5.16l-1.36-.63-4.12-1.86c-1.97-.88-4.29-.24-5.53,1.54-1.55,2.55-3.75,4.65-6.37,6.08-3.45,1.82-7.31,2.72-11.2,2.63-3.92.05-7.79-.89-11.25-2.72-3.3-1.74-6.1-4.29-8.14-7.4-1.64-2.52-2.7-5.38-3.09-8.36.39,0,.74.09,1.15.09h54.77l.27-1.83c.13-1.16.19-2.33.17-3.49.09-6.36-1.29-12.66-4.02-18.4M880.5,189.04c.64-2.51,1.71-4.89,3.18-7.03,1.99-2.81,4.6-5.13,7.62-6.78,3.01-1.65,6.39-2.51,9.82-2.5,5.21-.28,10.32,1.52,14.2,5.01,3.13,3.04,5.22,6.99,5.96,11.29h-40.78Z"/>
          <path class="cls-2" d="M567.22,153.65h39.13c2.98.03,5.44-2.35,5.49-5.33v-5.97c-.05-2.98-2.51-5.37-5.49-5.33h-60.32c-2.98-.03-5.43,2.35-5.48,5.33v87.91c.15,1.81,1.73,3.17,3.55,3.03h9.61c1.74.12,3.25-1.19,3.37-2.93,0-.03,0-.07,0-.1v-22.18c.17-5.45,4.67-9.76,10.12-9.69h17.65c7.53,0,14.06-5.2,15.75-12.53.33-.99.19-2.07-.37-2.94-.76-.83-1.87-1.25-2.99-1.12h-30.03c-5.46.07-9.97-4.26-10.12-9.73v-8.72c.17-5.45,4.67-9.76,10.12-9.69"/>
          <path class="cls-5" d="M531.49,0c-24.96-.28-48.18,12.76-60.93,34.21-3.27,5.68-5.63,11.83-6.97,18.25l1.54-.05c.56-.04,1.13-.07,1.73-.1,1.4-6.24,3.8-12.21,7.11-17.68,12.37-19.81,34.18-31.73,57.53-31.45,36.46,0,66.01,27.79,66.01,61.75,0,69.62-66.94,89.63-108.7,89.72v3.18c25.12.07,49.81-6.55,71.54-19.17,25.85-15.42,41.29-43.64,40.35-73.73C600.69,29.13,569.65,0,531.49,0"/>
          <path class="cls-2" d="M531.49,3.17c-30.37-.7-57.18,19.69-64.63,49.13-.92,4.14-1.38,8.37-1.38,12.62.72,18.17,9.08,35.2,23.03,46.87,13.15,12.19,24.75,18.7.3,32.06v10.78c31.19,0,76.5-11.15,97.37-45.92,7.74-13.28,11.66-28.44,11.33-43.8,0-33.96-29.56-61.75-66.02-61.75"/>
          <path class="cls-1" d="M543.23,17.54h0c-6.01-1.22-12.17-1.48-18.26-.78-21.03,1.79-38.77,16.37-44.61,36.65-1.76,7.08-1.67,14.49.26,21.52,1.25,4.56,3.21,8.9,5.81,12.85,3.3,4.92,7.43,9.24,12.19,12.76,11.91,9,18.04,17.67,18.23,25.75.03,4.49-1.65,8.82-4.69,12.12l-1.83,2.13,2.78-.42c15.05-2.55,29.33-8.45,41.78-17.28,18.41-12.27,29.52-32.9,29.62-55.03,1.35-23.21-16.78-45.29-41.26-50.26"/>
        </g>
      </g>
    </g>
  </g>
</svg>