<?xml version="1.0" encoding="UTF-8"?>
<svg id="Calque_2" data-name="Calque 2" xmlns="http://www.w3.org/2000/svg" viewBox="0 0 2009.17 300">
  <g id="Calque_1-2" data-name="Calque 1">
    <g>
      <path d="M2006.97,0c-19.27,2.75-37.98,4.95-57.25,7.71,6.61,3.3,13.21,6.61,19.27,9.91v64.4c-24.22-9.36-49.54-15.96-75.41-17.06-29.72-.55-60.55.55-88.62,11.01-19.82,6.61-39.08,15.96-55.6,29.72-9.91,8.26-19.27,18.72-24.22,30.83-4.4,10.46-4.4,22.02-.55,32.48,5.5,14.86,17.06,26.42,29.72,35.78,21.47,14.86,46.24,23.67,71.56,28.62,20.92,3.85,42.39,5.5,63.3,4.4,28.07-2.2,53.94-12.11,79.82-22.02v20.92c13.21,0,26.97.55,40.18,0V.55h-2.2v-.55ZM1968.99,201.47c-21.47,12.66-45.69,19.27-70.46,19.82-28.62,1.1-57.8-3.3-84.22-14.86-13.21-6.06-25.87-13.76-35.78-24.77-8.81-9.91-14.86-22.57-14.31-35.78.55-16.51,11.01-31.38,23.67-41.28,20.37-15.96,46.24-23.12,71.56-25.32,37.43-3.3,76.51,3.3,108.99,22.57.55,33.03.55,66.06.55,99.63Z"/>
      <path d="M296.7,115.6c-11.01-15.96-27.52-26.42-45.14-34.13-24.77-10.46-51.19-15.41-78.17-17.06-15.41-1.1-30.83-1.1-46.24,1.1-23.67,3.85-45.69,12.11-67.71,20.92v-22.57c-19.82,2.75-39.63,5.5-59.45,7.71v-1.1,1.1c6.61,3.3,13.21,6.61,19.27,9.91v218.53h40.18v-79.82c23.12,9.36,47.89,16.51,72.66,18.17,20.37.55,41.28,0,61.1-3.85,25.32-4.95,50.09-13.21,71.56-26.97,14.86-9.36,29.17-20.92,36.88-36.88,8.81-17.61,6.06-39.63-4.95-55.05h0ZM248.81,189.91c-15.41,15.96-36.33,25.32-57.8,29.72-33.03,7.16-67.16,5.5-99.63-4.4-11.01-3.3-22.02-8.26-32.48-14.31v-91.93c0-2.75-.55-5.5.55-8.26,24.22-14.86,52.84-20.92,80.92-19.82,32.48.55,66.06,7.71,93.58,26.42,13.76,9.36,25.87,23.12,28.62,39.63,3.3,15.96-3.3,31.93-13.76,42.94Z"/>
      <path d="M348.99,72.66c19.82-2.75,39.08-4.95,58.9-7.71,0,9.36-.55,18.72,0,28.07,25.32-15.96,55.05-25.87,85.32-27.52,16.51-.55,33.03,1.65,48.44,7.16-3.3,6.06-6.61,12.11-10.46,18.17-25.32-8.26-52.84-12.11-78.72-6.06-17.06,3.3-32.48,12.66-44.59,24.77v127.16h-40.18V82.57c-6.06-3.3-12.66-5.5-18.72-9.91h0Z"/>
      <path d="M906.61,72.66c19.82-2.75,39.08-4.95,58.9-7.71.55,9.36,0,18.72,0,28.62,20.92-12.66,44.04-19.82,68.26-23.12,20.37-2.2,41.28-.55,60.55,6.61,11.01,4.4,21.47,11.01,29.17,20.37,17.06-12.66,37.98-19.82,58.35-24.77,29.17-6.06,60.55-4.95,88.07,7.71,9.91,4.4,19.82,10.46,26.42,18.72,3.85,4.4,6.06,10.46,6.06,16.51v121.1h-40.18c.55-38.53,0-77.61,0-116.15,0-5.5-1.1-11.56-4.4-16.51-6.61-10.46-18.72-14.86-30.28-18.17-22.02-4.95-46.24-3.85-67.71,3.3-11.56,4.4-23.12,11.01-31.38,20.37-.55,42.39,0,84.77,0,126.61h-37.98c.55-36.88,0-73.76,0-111.19,0-6.06.55-12.66-2.2-18.17-4.4-10.46-14.86-15.96-24.77-20.37-12.66-4.95-26.42-4.95-39.63-3.85-22.02,1.65-44.04,10.46-59.45,26.42v126.61h-40.18V81.47c-5.5-2.2-12.11-4.4-17.61-8.81h0Z"/>
      <path d="M874.68,145.87c-1.65-15.41-11.01-28.62-22.57-38.53-15.41-13.21-34.13-22.02-53.39-28.07-32.48-10.46-66.61-13.21-100.73-11.01-20.37,1.65-41.28,4.95-61.1,10.46-25.87,8.26-52.29,20.37-71.01,40.18-9.36,9.91-17.06,23.67-15.96,37.98.55,17.61,11.56,33.03,24.77,44.04,20.92,17.06,46.79,26.97,73.21,32.48,33.58,7.16,68.81,8.26,102.94,2.75,22.02-3.85,44.04-8.26,64.4-17.61,18.17-8.26,35.78-19.82,48.44-35.78,7.71-10.46,12.66-23.67,11.01-36.88h0ZM830.09,164.59c-4.95,19.27-20.37,33.58-36.88,43.49-20.37,11.56-44.04,14.31-67.16,15.96-29.17.55-58.9-3.85-85.32-16.51-15.41-7.71-30.28-18.17-39.63-33.58-6.61-11.56-8.81-25.87-3.85-38.53,6.06-17.06,20.37-30.28,36.33-38.53,15.96-8.81,34.13-13.76,52.84-14.86,29.17-2.75,59.45,0,86.97,10.46,17.61,6.61,34.13,15.96,46.24,30.83,8.81,11.01,14.31,26.97,10.46,41.28h0Z"/>
      <path d="M1672.84,133.21c-5.5-14.31-16.51-24.77-29.17-33.58-16.51-11.01-35.23-18.72-53.94-23.67-33.03-8.81-67.16-10.46-100.73-7.16-31.38,3.3-63.3,11.01-90.83,26.42-14.31,8.26-28.62,18.72-37.98,32.48-6.61,9.36-9.91,21.47-8.26,33.03,2.2,17.06,13.76,31.38,26.97,41.83,23.12,18.17,52.29,27.52,80.92,33.03,31.93,5.5,64.95,5.5,96.88,0,28.62-4.95,57.8-12.66,82.02-28.62,14.86-9.91,28.62-22.57,34.68-39.08,3.85-11.56,3.85-23.67-.55-34.68h0ZM1630.46,165.69c-3.85,14.31-13.76,25.87-25.32,35.23-13.76,10.46-29.72,17.61-46.79,20.37-40.18,7.16-83.67,3.85-120.55-14.31-14.31-7.16-28.07-17.61-36.33-31.38-6.61-11.01-8.81-24.77-4.95-36.88,3.85-13.76,13.76-24.77,25.32-33.03,17.06-12.66,37.43-19.27,57.8-22.02,32.48-3.85,66.06-1.1,96.88,11.01,17.06,6.61,33.03,16.51,44.04,30.83,9.36,10.46,13.76,25.87,9.91,40.18h0Z"/>
    </g>
  </g>
</svg>