<?xml version="1.0" encoding="UTF-8"?>
<svg id="Calque_2" data-name="Calque 2" xmlns="http://www.w3.org/2000/svg" viewBox="0 0 551.51 300">
  <defs>
    <style>
      .cls-1 {
        fill: #f0501e;
      }

      .cls-2 {
        fill: #343333;
      }
    </style>
  </defs>
  <g id="Calque_1-2" data-name="Calque 1">
    <g>
      <g>
        <path class="cls-1" d="M196.5,9.59l-95.95,157.36c-.64,1.92-3.2,1.92-3.84,0L.13,9.59c-.64-1.28,1.28-3.2,2.56-3.2h192.54c1.28,0,3.2,1.92,1.28,3.2"/>
        <path class="cls-1" d="M164.52,165.03L261.11,7.68c.64-1.92,3.2-1.92,3.84,0l95.95,157.36c.64,1.92,0,3.2-1.92,3.2h-191.9c-1.92,0-3.2-1.28-2.56-3.2"/>
        <path class="cls-1" d="M551.51,87.63c0,48.61-39.02,86.99-86.99,86.99s-86.99-39.02-86.99-86.99S415.91,0,463.88,0s87.63,39.02,87.63,87.63"/>
      </g>
      <g>
        <g>
          <polygon class="cls-2" points="237.44 219.4 243.84 229.64 254.07 229.64 247.68 219.4 237.44 219.4"/>
          <path class="cls-2" d="M248.95,252.03l7.04,20.47h-14.71l7.68-20.47ZM232.96,297.44l5.12-14.71h21.75l5.12,14.71h10.87l-21.11-60.77h-10.87l-21.11,60.77h10.23Z"/>
        </g>
        <g>
          <polygon class="cls-2" points=".13 236.67 .13 247.55 21.24 247.55 21.24 297.44 32.75 297.44 32.75 247.55 53.86 247.55 53.86 236.67 .13 236.67"/>
          <polygon class="cls-2" points="192.66 297.44 192.66 285.93 163.88 285.93 163.88 270.58 185.63 270.58 185.63 259.7 163.88 259.7 163.88 247.55 192.66 247.55 192.66 236.67 153.01 236.67 153.01 297.44 192.66 297.44"/>
          <path class="cls-2" d="M72.41,252.03l7.04,20.47h-14.71l7.68-20.47ZM56.42,297.44l5.12-14.71h21.75l5.12,14.71h10.23l-21.11-60.77h-10.23l-21.75,60.77h10.87Z"/>
          <path class="cls-2" d="M126.14,265.46h-10.23v-17.91h10.23c5.12,0,8.96,3.84,8.96,8.96,0,4.48-3.84,8.96-8.96,8.96M126.14,236.67h-21.11v60.77h10.87v-21.11h10.23c10.23,0,19.19-8.96,19.19-19.19.64-11.51-8.32-20.47-19.19-20.47"/>
        </g>
        <g>
          <polygon class="cls-2" points="345.54 297.44 345.54 285.93 317.4 285.93 317.4 236.67 305.88 236.67 305.88 287.21 305.88 297.44 345.54 297.44"/>
          <polygon class="cls-2" points="477.31 297.44 477.31 285.93 447.89 285.93 447.89 270.58 469.64 270.58 469.64 259.7 447.89 259.7 447.89 247.55 477.31 247.55 477.31 236.67 437.65 236.67 437.65 297.44 477.31 297.44"/>
          <polygon class="cls-2" points="512.49 287.21 512.49 297.44 551.51 297.44 551.51 285.93 523.37 285.93 523.37 236.67 512.49 236.67 512.49 287.21"/>
          <rect class="cls-2" x="489.47" y="236.67" width="10.23" height="60.77"/>
          <polygon class="cls-2" points="334.67 247.55 345.54 247.55 352.58 236.67 341.07 236.67 334.67 247.55"/>
          <path class="cls-2" d="M397.99,287.21c-11.51,0-20.47-8.32-20.47-20.47,0-11.51,8.32-20.47,20.47-20.47,11.51,0,20.47,8.32,20.47,20.47s-8.32,20.47-20.47,20.47M397.99,234.75c-17.91,0-32.62,14.71-32.62,32.62s14.71,32.62,32.62,32.62,32.62-14.71,32.62-32.62-14.71-32.62-32.62-32.62"/>
        </g>
      </g>
    </g>
  </g>
</svg>